<svg xmlns="http://www.w3.org/2000/svg" viewBox="0 0 32 32">
  <circle cx="16" cy="16" r="16" fill="#fff"/>
  <path fill="#b22234" d="M2.5 7.2h27a16 16 0 0 1 1.2 3H1.3a16 16 0 0 1 1.2-3Zm-1.9 6h30.8a16.6 16.6 0 0 1 0 3H.6a16.6 16.6 0 0 1 0-3Zm.7 6h29.4a16 16 0 0 1-1.2 3h-27a16 16 0 0 1-1.2-3Zm4.4 6h20.6a16 16 0 0 1-20.6 0Z"/>
  <path fill="#3c3b6e" d="M2.5 7.2A16 16 0 0 1 16 0v16.2H.6a16 16 0 0 1 1.9-9Z"/>
  <path fill="#fff" d="m4.2 6.6.5 1.4h1.4L5 8.8l.4 1.4-1.2-.8-1.1.8.4-1.4-1.1-.8h1.4zm5 0 .4 1.4h1.5L9.9 8.8l.5 1.4-1.2-.8-1.2.8.5-1.4-1.2-.8h1.5zm5 0 .4 1.4h1.4l-1.1.8.4 1.4-1.1-.8-1.2.8.5-1.4-1.2-.8h1.4zM6.7 11l.4 1.4h1.5l-1.2.8.5 1.4-1.2-.9-1.2.9.5-1.4-1.2-.8h1.5zm5 0 .4 1.4h1.5l-1.2.8.5 1.4-1.2-.9-1.2.9.5-1.4-1.2-.8h1.5z"/>
</svg>
